:SAMPLES-PER-SECOND 24
:FULLY-SPECIFIED
:DEGREES
129
root  -0.856233 38.6231 1.41207 157.397 -24.5095 -169.025
RightUpLeg  5.86176 -38.6417 -28.2867
RightLeg  74.8009 0.91962 2.7618
RightFoot  16.9595 -3.01706 12.3968
RightToes  -1.46203e-006 3.27826e-006 1.63871e-007
Spine  0.760988 6.10501 3.96459
Spine1  20.8596 2.66088 4.25571
HEad  -0.0648876 -28.5695 7.58747
LeftShoulder1  2.02119 -3.39822 -23.0081
LeftArm  9.39754 19.6646 -32.3399
LeftForeArm  63.7385 -78.9694 -70.3927
LeftHand  -0.324302 3.05093 15.7765
RightShoulder  3.26131 5.45939 30.4911
RightArm  -20.3103 20.7883 25.487
RightForeArm  156.462 62.8888 159.416
RightHand  -0.257581 -3.49033 -15.2487
LeftUpLeg  -1.88345 20.8956 -1.5224
LeftLeg  25.1914 26.4582 9.88615
LeftFoot  -4.15369 -0.606655 10.0247
LeftToes  1.24767e-006 1.47042e-008 1.32732e-009
130
root  -0.710026 38.1524 2.55038 160.191 -20.8198 -171.558
RightUpLeg  9.01921 -34.0522 -24.3273
RightLeg  67.2852 5.53205 13.6058
RightFoot  10.7449 -3.80271 19.8023
RightToes  -1.46203e-006 3.27826e-006 1.63871e-007
Spine  1.34103 6.90391 5.69578
Spine1  21.663 4.2411 2.80217
HEad  -3.0849 -27.0526 7.68382
LeftShoulder1  2.03982 -3.34122 -23.5536
LeftArm  8.20584 23.8733 -31.5729
LeftForeArm  62.3318 -78.8534 -68.3091
LeftHand  -0.248896 3.63083 15.8941
RightShoulder  3.38379 5.62467 31.1792
RightArm  -18.129 21.7378 27.6261
RightForeArm  149.684 66.7871 154.968
RightHand  -0.466547 -2.43021 -18.0536
LeftUpLeg  -4.82925 14.2845 -4.95332
LeftLeg  24.532 37.3722 11.1937
LeftFoot  -3.58642 -0.784826 11.899
LeftToes  1.24767e-006 1.47042e-008 1.32732e-009
131
root  -0.410199 37.9073 3.97698 162.487 -18.8737 -173.458
RightUpLeg  10.9776 -29.2548 -19.3379
RightLeg  60.3298 13.6383 23.8368
RightFoot  2.35299 -2.75775 22.8205
RightToes  -1.46203e-006 3.27826e-006 1.63871e-007
Spine  2.61986 6.77178 6.48553
Spine1  22.3647 4.85798 2.19345
HEad  -7.42701 -24.7507 8.3362
LeftShoulder1  2.15347 -3.47744 -24.6521
LeftArm  7.2052 25.6268 -32.1948
LeftForeArm  57.0355 -78.4329 -63.9861
LeftHand  -0.190407 4.15665 17.13
RightShoulder  3.53968 5.83777 32.01
RightArm  -14.4763 21.4793 30.546
RightForeArm  129.186 74.0771 139.22
RightHand  -0.956599 -0.313022 -21.7619
LeftUpLeg  -7.53195 9.60988 -6.79749
LeftLeg  21.8258 45.2639 9.50164
LeftFoot  -0.907368 -1.38485 15.1316
LeftToes  1.24767e-006 1.47042e-008 1.32732e-009
132
root  -0.0194203 37.8418 5.78711 164.768 -18.4818 -174.804
RightUpLeg  11.4345 -25.9019 -14.4406
RightLeg  52.6037 19.9172 25.4561
RightFoot  -7.81543 -0.539234 14.3709
RightToes  -1.46203e-006 3.27826e-006 1.63871e-007
Spine  5.61486 5.76188 8.24819
Spine1  21.1076 5.36837 0.548952
HEad  -11.743 -22.7874 8.28894
LeftShoulder1  2.26277 -3.70556 -25.2193
LeftArm  7.3956 24.0168 -34.0908
LeftForeArm  52.1173 -78.0184 -60.9216
LeftHand  -0.145361 4.56023 19.2972
RightShoulder  3.54984 5.86318 32.0152
RightArm  -11.1205 20.3833 34.4564
RightForeArm  63.2665 78.7864 77.1748
RightHand  -1.43959 1.47173 -24.2581
LeftUpLeg  -9.96537 6.59563 -7.37784
LeftLeg  14.9554 47.5312 2.98813
LeftFoot  5.04047 -2.7347 18.5681
LeftToes  1.24767e-006 1.47042e-008 1.32732e-009
133
root  0.41599 37.7068 7.95075 166.964 -19.4074 -175.085
RightUpLeg  10.226 -27.2421 -10.6635
RightLeg  44.2591 19.7715 19.2787
RightFoot  -16.8142 0.0319178 2.86117
RightToes  -1.46203e-006 3.27826e-006 1.63871e-007
Spine  9.93605 3.91663 11.3038
Spine1  18.2951 5.19468 -1.38205
HEad  -15.636 -21.2399 6.51993
LeftShoulder1  2.30155 -3.87583 -25.0124
LeftArm  8.14852 19.6364 -37.4172
LeftForeArm  51.7645 -78.0489 -61.7161
LeftHand  -0.115489 4.74783 19.4554
RightShoulder  3.50957 5.84867 31.6412
RightArm  -9.22494 21.2163 37.5089
RightForeArm  13.419 65.9423 25.6035
RightHand  -1.13943 -0.0393147 -24.7195
LeftUpLeg  -13.5151 8.57416 -8.12379
LeftLeg  9.66144 32.9339 -3.23827
LeftFoot  14.0294 -3.22991 14.2285
LeftToes  1.24767e-006 1.47042e-008 1.32732e-009
134
root  0.821904 37.5212 10.13 169.594 -19.4454 -174.998
RightUpLeg  5.10798 -30.392 -6.63354
RightLeg  39.6265 16.1764 13.6589
RightFoot  -21.0477 -0.316046 -2.08955
RightToes  -1.46203e-006 3.27826e-006 1.63871e-007
Spine  12.8078 2.94019 14.6065
Spine1  17.151 5.34416 -2.24525
HEad  -20.1981 -20.2827 4.60633
LeftShoulder1  2.29834 -3.87636 -24.9634
LeftArm  10.0459 11.5087 -41.6782
LeftForeArm  48.8457 -77.7355 -59.2175
LeftHand  -0.118521 4.68495 18.0693
RightShoulder  3.56559 6.01445 31.5749
RightArm  -9.11645 23.5901 37.5967
RightForeArm  6.50151 52.0169 13.9435
RightHand  0.414809 -7.63183 -22.0124
LeftUpLeg  -19.9278 17.0469 -11.1896
LeftLeg  12.2844 0.193705 -4.58998
LeftFoot  19.2426 0.0759446 -0.599385
LeftToes  1.24767e-006 1.47042e-008 1.32732e-009
135
root  1.15686 37.5418 12.1517 173.106 -17.7426 -176.267
RightUpLeg  -3.35145 -28.7351 -2.49369
RightLeg  37.8692 12.018 9.61024
RightFoot  -20.7743 -0.426421 -3.46428
RightToes  -1.46203e-006 3.27826e-006 1.63871e-007
Spine  14.2785 3.48895 15.5617
Spine1  17.3103 6.44334 -2.66162
HEad  -24.709 -19.7742 4.11975
LeftShoulder1  2.29912 -3.73721 -25.5991
LeftArm  13.4972 1.0127 -45.4909
LeftForeArm  41.8317 -76.7769 -52.9164
LeftHand  -0.114855 4.69223 17.5882
RightShoulder  3.7284 6.274 32.2475
RightArm  -9.33796 22.9198 36.3805
RightForeArm  7.95628 49.0301 12.3594
RightHand  1.35831 -14.6099 -17.3104
LeftUpLeg  -25.6167 17.053 -11.7133
LeftLeg  17.875 -15.1584 -5.13936
LeftFoot  13.9899 2.22111 -10.2467
LeftToes  1.24767e-006 1.47042e-008 1.32732e-009
136
root  1.3845 37.971 13.9639 176.14 -18.3043 -178.272
RightUpLeg  -9.3045 -26.6512 -1.27014
RightLeg  35.1308 9.42605 6.81413
RightFoot  -17.3331 -0.311637 -3.70102
RightToes  -1.46203e-006 3.27826e-006 1.63871e-007
Spine  15.0353 3.02923 13.2807
Spine1  16.5268 5.61496 -2.20418
HEad  -26.9351 -18.4608 4.21822
LeftShoulder1  2.26692 -3.65408 -25.5139
LeftArm  16.0228 -7.53616 -49.4902
LeftForeArm  38.4217 -76.2907 -50.5274
LeftHand  -0.117505 4.65755 17.1235
RightShoulder  3.89379 6.40456 33.4154
RightArm  -7.705 18.0446 37.0696
RightForeArm  12.0271 55.0879 15.2794
RightHand  0.971007 -15.0781 -12.0056
LeftUpLeg  -26.7306 9.66598 -8.36915
LeftLeg  22.1332 -6.54815 -2.5677
LeftFoot  7.00286 1.23359 -7.82183
LeftToes  1.24767e-006 1.47042e-008 1.32732e-009
137
root  1.46035 38.6443 15.473 177.989 -22.1924 -179.711
RightUpLeg  -10.9884 -29.3162 -2.02192
RightLeg  30.1463 9.22087 5.4962
RightFoot  -12.7891 -0.119361 -2.37354
RightToes  -1.46203e-006 3.27826e-006 1.63871e-007
Spine  14.0929 1.06689 9.72534
Spine1  15.8286 2.07883 0.286671
HEad  -26.316 -16.5058 3.76618
LeftShoulder1  2.1327 -3.59194 -23.823
LeftArm  17.0337 -14.2 -54.4837
LeftForeArm  38.2831 -76.3846 -51.3062
LeftHand  -0.158806 4.31256 16.1016
RightShoulder  3.97274 6.43775 34.0745
RightArm  -5.22367 12.8727 38.8856
RightForeArm  19.6498 63.9854 21.7426
RightHand  0.0948848 -12.8979 -2.53859
LeftUpLeg  -24.4507 4.96542 -5.97542
LeftLeg  24.9233 2.85694 1.76716
LeftFoot  2.32007 0.21768 -1.92923
LeftToes  1.24767e-006 1.47042e-008 1.32732e-009
138
root  1.45959 39.4247 16.8012 179.704 -24.9217 178.414
RightUpLeg  -10.5885 -31.3662 -3.31461
RightLeg  22.3672 9.05483 3.5529
RightFoot  -7.61322 -0.0573834 0.0553911
RightToes  -1.46203e-006 3.27826e-006 1.63871e-007
Spine  12.5116 -0.0250413 5.4555
Spine1  15.6085 -0.627518 3.27054
HEad  -23.7886 -15.4745 2.9097
LeftShoulder1  1.94342 -3.36807 -21.9442
LeftArm  18.9639 -22.2887 -59.1078
LeftForeArm  37.3087 -76.27 -50.8478
LeftHand  -0.222107 3.79509 15.5445
RightShoulder  3.93919 6.45035 33.6901
RightArm  -4.06856 10.8234 39.2889
RightForeArm  35.3693 73.4319 37.2684
RightHand  -0.429673 -11.474 6.69654
LeftUpLeg  -19.6952 5.25164 -4.01197
LeftLeg  25.6692 5.8771 3.40311
LeftFoot  -2.47646 0.0306066 -0.22865
LeftToes  1.24767e-006 1.47042e-008 1.32732e-009
139
root  1.39627 40.0181 18.0752 -178.65 -25.567 176.037
RightUpLeg  -9.18237 -20.6611 -7.002
RightLeg  14.9306 -2.34107 2.53997
RightFoot  -4.34472 -0.150854 1.98337
RightToes  -1.46203e-006 3.27826e-006 1.63871e-007
Spine  11.899 -0.12464 1.53986
Spine1  13.7281 -1.47309 4.78356
HEad  -20.1974 -15.0795 2.19667
LeftShoulder1  1.76362 -3.09167 -20.301
LeftArm  21.4416 -31.0319 -62.9792
LeftForeArm  37.0632 -76.1597 -50.1378
LeftHand  -0.250523 3.51853 15.0369
RightShoulder  3.74561 6.34751 32.1365
RightArm  -4.68984 11.9935 38.8014
RightForeArm  78.954 79.6553 82.1903
RightHand  -0.377401 -10.2945 7.25804
LeftUpLeg  -13.6238 8.62918 -1.84826
LeftLeg  25.3358 8.35288 4.62305
LeftFoot  -4.12768 0.0481086 -0.368923
LeftToes  1.24767e-006 1.47042e-008 1.32732e-009
140
root  1.18228 40.2791 19.3652 -177.715 -27.0462 174.489
RightUpLeg  -8.7104 -12.5989 -10.1179
RightLeg  11.3111 -13.1592 2.14362
RightFoot  -5.34518 -0.195992 3.06231
RightToes  -1.46203e-006 3.27826e-006 1.63871e-007
Spine  11.2754 -0.834866 -0.588886
Spine1  11.4625 -2.41845 5.49183
HEad  -16.671 -14.5044 1.95632
LeftShoulder1  1.63863 -3.0381 -18.4852
LeftArm  22.871 -38.6709 -67.0946
LeftForeArm  36.681 -75.8607 -48.2558
LeftHand  -0.261652 3.44092 15.1056
RightShoulder  3.3417 6.00111 29.227
RightArm  -7.03161 16.6851 38.7068
RightForeArm  121.659 77.1922 127.007
RightHand  -0.0434555 -10.0099 -0.307126
LeftUpLeg  -7.38941 11.5045 1.53604
LeftLeg  24.8443 10.7737 5.72719
LeftFoot  -0.45262 -0.0149889 0.170054
LeftToes  1.24767e-006 1.47042e-008 1.32732e-009
141
root  0.824526 40.359 20.6766 -177.333 -29.2239 173.959
RightUpLeg  -8.71197 -10.0578 -11.8513
RightLeg  9.18931 -18.4412 1.56431
RightFoot  -7.02111 -0.2012 4.05863
RightToes  -1.46203e-006 3.27826e-006 1.63871e-007
Spine  9.68292 -1.80105 -1.61664
Spine1  10.9009 -3.58543 6.36717
HEad  -13.953 -14.5191 2.10401
LeftShoulder1  1.57404 -3.14398 -17
LeftArm  24.4397 -45.2836 -72.1965
LeftForeArm  34.4107 -74.8426 -43.3504
LeftHand  -0.330665 3.16976 16.9047
RightShoulder  2.85836 5.45998 25.8515
RightArm  -11.6283 24.2768 37.1362
RightForeArm  132.481 74.1748 139.662
RightHand  0.277909 -8.55715 -11.9188
LeftUpLeg  -1.32228 13.0401 6.11256
LeftLeg  23.7184 11.3365 5.72735
LeftFoot  4.00931 -0.236845 1.57301
LeftToes  1.24767e-006 1.47042e-008 1.32732e-009
142
root  0.372222 40.333 22.0649 -177.485 -31.8132 173.948
RightUpLeg  -8.5648 -9.3711 -12.935
RightLeg  7.67403 -20.0247 0.602755
RightFoot  -6.82101 -0.235191 4.77126
RightToes  -1.46203e-006 3.27826e-006 1.63871e-007
Spine  8.64543 -2.74431 -2.29838
Spine1  10.6545 -4.79697 7.48779
HEad  -12.1105 -15.1232 2.40567
LeftShoulder1  1.53404 -3.25463 -15.9343
LeftArm  27.0209 -49.6925 -78.2268
LeftForeArm  32.5168 -73.6921 -38.9596
LeftHand  -0.376339 3.07777 18.6214
RightShoulder  2.38933 4.74706 22.7634
RightArm  -17.6617 31.0586 33.9685
RightForeArm  130.464 74.134 139.329
RightHand  -0.046353 -5.25396 -23.464
LeftUpLeg  4.0415 11.89 10.2842
LeftLeg  22.2842 11.3015 5.3674
LeftFoot  6.91466 -0.679781 3.94902
LeftToes  1.24767e-006 1.47042e-008 1.32732e-009
